<svg width="50" height="50" viewBox="0 0 50 50" fill="none" xmlns="http://www.w3.org/2000/svg">
<path d="M16.4428 41.6788C15.9184 41.8521 15.6338 42.4177 15.8071 42.9421C15.9804 43.4665 16.546 43.7511 17.0704 43.5778L16.4428 41.6788ZM28.8796 43.4296L28.7896 42.4336L28.8796 43.4296ZM36.1533 41.827L36.5889 42.7272L36.1533 41.827ZM43.1036 35.5585L42.3291 34.9259V34.9259L43.1036 35.5585ZM38.35 31.6363L39.0541 32.3465L38.35 31.6363ZM35.149 34.8099L35.8531 35.52V35.52L35.149 34.8099ZM26.455 35.218C25.9027 35.218 25.455 35.6657 25.455 36.218C25.455 36.7703 25.9027 37.218 26.455 37.218V35.218ZM42.3645 31.2422L41.8131 32.0764L42.3645 31.2422ZM19.2167 30.1908L19.6608 31.0868H19.6608L19.2167 30.1908ZM27.9168 29.4018L28.1778 28.4364L27.9168 29.4018ZM31.3143 30.3204L31.0533 31.2858L31.3143 30.3204ZM32.3908 34.3394L31.6868 33.6292H31.6868L32.3908 34.3394ZM29.7919 35.5079C29.3997 35.8967 29.397 36.5299 29.7858 36.9221C30.1747 37.3143 30.8078 37.317 31.2 36.9282L29.7919 35.5079ZM17.0704 43.5778C17.4831 43.4414 18.1286 43.4002 19.0349 43.4643C19.9208 43.5269 20.9407 43.6794 22.058 43.8534C24.2346 44.1923 26.7989 44.6216 28.9695 44.4255L28.7896 42.4336C26.9193 42.6025 24.6344 42.2305 22.3658 41.8772C21.2606 41.7051 20.159 41.5388 19.1759 41.4693C18.2132 41.4012 17.2423 41.4146 16.4428 41.6788L17.0704 43.5778ZM28.9695 44.4255C32.138 44.1393 33.5035 44.22 36.5889 42.7272L35.7178 40.9268C33.0179 42.2331 32.032 42.1408 28.7896 42.4336L28.9695 44.4255ZM36.5889 42.7272C39.3281 41.4019 42.1315 38.3291 43.878 36.1912L42.3291 34.9259C40.5729 37.0757 38.0147 39.8156 35.7178 40.9268L36.5889 42.7272ZM37.6459 30.9262L34.445 34.0998L35.8531 35.52L39.0541 32.3465L37.6459 30.9262ZM31.7201 35.218H26.455V37.218H31.7201V35.218ZM34.445 34.0998C33.7238 34.8148 32.7438 35.218 31.7201 35.218V37.218C33.2687 37.218 34.7555 36.6082 35.8531 35.52L34.445 34.0998ZM42.916 30.408C41.2599 29.3134 39.0555 29.5287 37.6459 30.9262L39.0541 32.3465C39.7893 31.6175 40.9454 31.5029 41.8131 32.0764L42.916 30.408ZM43.878 36.1912C45.399 34.3293 44.8422 31.6812 42.916 30.408L41.8131 32.0764C42.8356 32.7522 43.0386 34.0574 42.3291 34.9259L43.878 36.1912ZM7.8664 29.2052H14.332V27.2052H7.8664V29.2052ZM14.9484 29.8078V44.2309H16.9484V29.8078H14.9484ZM14.332 44.8334H7.8664V46.8334H14.332V44.8334ZM7.25 44.2309V29.8078H5.25V44.2309H7.25ZM7.8664 44.8334C7.51785 44.8334 7.25 44.5555 7.25 44.2309H5.25C5.25 45.6763 6.42953 46.8334 7.8664 46.8334V44.8334ZM14.9484 44.2309C14.9484 44.5555 14.6805 44.8334 14.332 44.8334V46.8334C15.7689 46.8334 16.9484 45.6763 16.9484 44.2309H14.9484ZM14.332 29.2052C14.6805 29.2052 14.9484 29.4831 14.9484 29.8078H16.9484C16.9484 28.3623 15.7689 27.2052 14.332 27.2052V29.2052ZM7.8664 27.2052C6.42952 27.2052 5.25 28.3623 5.25 29.8078H7.25C7.25 29.4831 7.51785 29.2052 7.8664 29.2052V27.2052ZM17.2007 32.3063L19.6608 31.0868L18.7726 29.2948L16.3124 30.5144L17.2007 32.3063ZM24.2768 30.0065H24.9397V28.0065H24.2768V30.0065ZM27.6558 30.3671L31.0533 31.2858L31.5754 29.3551L28.1778 28.4364L27.6558 30.3671ZM31.6868 33.6292L29.7919 35.5079L31.2 36.9282L33.0949 35.0495L31.6868 33.6292ZM31.0533 31.2858C32.1137 31.5725 32.4498 32.8727 31.6868 33.6292L33.0949 35.0495C34.9647 33.1957 34.1071 30.0397 31.5754 29.3551L31.0533 31.2858ZM24.9397 30.0065C25.8573 30.0065 26.7707 30.1278 27.6558 30.3671L28.1778 28.4364C27.1224 28.1511 26.0335 28.0065 24.9397 28.0065V30.0065ZM19.6608 31.0868C21.0937 30.3765 22.6741 30.0065 24.2768 30.0065V28.0065C22.3664 28.0065 20.482 28.4475 18.7726 29.2948L19.6608 31.0868ZM35.9615 16.9873C35.9615 19.9672 33.5226 22.3975 30.4959 22.3975V24.3975C34.611 24.3975 37.9615 21.0879 37.9615 16.9873H35.9615ZM30.4959 22.3975C27.4693 22.3975 25.0304 19.9672 25.0304 16.9873H23.0304C23.0304 21.0879 26.3809 24.3975 30.4959 24.3975V22.3975ZM25.0304 16.9873C25.0304 14.0073 27.4693 11.577 30.4959 11.577V9.577C26.3809 9.577 23.0304 12.8866 23.0304 16.9873H25.0304ZM30.4959 11.577C33.5226 11.577 35.9615 14.0073 35.9615 16.9873H37.9615C37.9615 12.8866 34.611 9.577 30.4959 9.577V11.577ZM24.0304 15.9873C21.0037 15.9873 18.5648 13.5569 18.5648 10.577H16.5648C16.5648 14.6777 19.9154 17.9873 24.0304 17.9873V15.9873ZM18.5648 10.577C18.5648 7.59709 21.0037 5.16675 24.0304 5.16675V3.16675C19.9154 3.16675 16.5648 6.47635 16.5648 10.577H18.5648ZM24.0304 5.16675C27.057 5.16675 29.4959 7.59709 29.4959 10.577H31.4959C31.4959 6.47635 28.1454 3.16675 24.0304 3.16675V5.16675Z" fill="#494A20"/>
</svg>
