<svg width="50" height="50" viewBox="0 0 50 50" fill="none" xmlns="http://www.w3.org/2000/svg">
<path d="M19.181 34.2804C19.181 37.2092 16.8653 39.5834 14.0086 39.5834C11.152 39.5834 8.83621 37.2092 8.83621 34.2804M19.181 34.2804C19.181 31.3516 16.8653 28.9774 14.0086 28.9774C11.152 28.9774 8.83621 31.3516 8.83621 34.2804M19.181 34.2804H30.819M8.83621 34.2804H6.25V11.4167C6.25 10.8645 6.69772 10.4167 7.25 10.4167H30.819V34.2804M42.4569 34.2804C42.4569 37.2092 40.1411 39.5834 37.2845 39.5834C34.4278 39.5834 32.1121 37.2092 32.1121 34.2804M42.4569 34.2804C42.4569 31.3516 40.1411 28.9774 37.2845 28.9774C34.4278 28.9774 32.1121 31.3516 32.1121 34.2804M42.4569 34.2804H43.75V23.6743L37.2845 17.0455H30.819V34.2804M32.1121 34.2804H30.819" stroke="#494A20" stroke-width="2" stroke-linecap="round" stroke-linejoin="round"/>
</svg>
