<svg width="50" height="50" viewBox="0 0 50 50" fill="none" xmlns="http://www.w3.org/2000/svg">
<path d="M24.5427 42.8354C14.4399 42.8354 6.25 34.6454 6.25 24.5427C6.25 14.4399 14.4399 6.25 24.5427 6.25C32.2196 6.25 38.792 10.979 41.5057 17.6829M8.53659 31.4024H13.872C15.9767 31.4024 17.6829 29.6962 17.6829 27.5915V22.6372C17.6829 20.5324 19.3892 18.8262 21.4939 18.8262H25.3049C27.4096 18.8262 29.1159 17.12 29.1159 15.0152V8.53659M36.4329 31.8597V31.7222M43.75 31.7007C43.75 36.4727 36.4329 42.8354 36.4329 42.8354C36.4329 42.8354 29.1159 36.4727 29.1159 31.7007C29.1159 27.7474 32.3918 24.5427 36.4329 24.5427C40.474 24.5427 43.75 27.7474 43.75 31.7007Z" stroke="#494A20" stroke-width="2" stroke-linecap="round" stroke-linejoin="round"/>
</svg>
